<?xml version="1.0" encoding="iso-8859-1"?>
<!-- Generator: Adobe Illustrator 19.0.0, SVG Export Plug-In . SVG Version: 6.00 Build 0)  -->
<svg version="1.1" id="Layer_1" xmlns="http://www.w3.org/2000/svg" xmlns:xlink="http://www.w3.org/1999/xlink" x="0px" y="0px"
	 viewBox="0 0 512 512" style="enable-background:new 0 0 512 512;" xml:space="preserve">
<g>
	<g>
		<path d="M384,0H127.999c-21.207,0-38.4,17.193-38.4,38.4c0,21.207,17.193,38.4,38.401,38.4h256c21.207,0,38.4-17.193,38.4-38.4
			C422.4,17.192,405.207,0,384,0z"/>
	</g>
</g>
<g>
	<g>
		<path d="M384,268.799v-153.6H127.999v38.4H230.4v38.4H127.999v38.4H230.4v38.4H127.999c-9.768,25.6-23.287,51.2-37.093,76.8
			h330.188C407.287,319.999,393.768,294.399,384,268.799z"/>
	</g>
</g>
<g>
	<g>
		<path d="M465.096,435.2c-6.513-17.066-14.694-34.134-23.514-51.2H70.418c-8.819,17.066-17.001,34.134-23.514,51.2
			c-17.44,42.41,12.421,76.799,66.694,76.8c90.668,0,194.135,0,284.801,0C452.674,512,482.535,477.613,465.096,435.2z"/>
	</g>
</g>
<g>
</g>
<g>
</g>
<g>
</g>
<g>
</g>
<g>
</g>
<g>
</g>
<g>
</g>
<g>
</g>
<g>
</g>
<g>
</g>
<g>
</g>
<g>
</g>
<g>
</g>
<g>
</g>
<g>
</g>
</svg>
